<svg width="40" height="40" viewBox="0 0 40 40" fill="none" xmlns="http://www.w3.org/2000/svg">
<path d="M39.8983 11.5894C39.8046 9.49494 39.4608 8.05498 38.9684 6.80724C38.4604 5.48279 37.6788 4.29701 36.6549 3.31127C35.6544 2.31019 34.443 1.5323 33.1144 1.03958C31.8407 0.554385 30.3869 0.215678 28.2611 0.12333C26.1195 0.023162 25.4396 0 20.0078 0C14.576 0 13.8961 0.023162 11.7624 0.115509C9.63662 0.207857 8.17518 0.546865 6.90912 1.03176C5.5646 1.5323 4.36113 2.30237 3.36068 3.31127C2.34466 4.29701 1.55548 5.49061 1.0551 6.79972C0.562658 8.05498 0.218896 9.48711 0.125171 11.5816C0.0235077 13.6918 0 14.3617 0 19.7136C0 25.0655 0.0235077 25.7354 0.117233 27.8378C0.210959 29.9323 0.555025 31.3722 1.04747 32.62C1.55548 33.9444 2.34466 35.1302 3.36068 36.1159C4.36113 37.117 5.57254 37.8949 6.90118 38.3876C8.17518 38.8728 9.62869 39.2115 11.7548 39.3039C13.8882 39.3965 14.5684 39.4194 20.0002 39.4194C25.432 39.4194 26.1118 39.3965 28.2455 39.3039C30.3713 39.2115 31.8328 38.8728 33.0988 38.3876C35.7875 37.3634 37.9133 35.2689 38.9528 32.62C39.445 31.3647 39.789 29.9323 39.8828 27.8378C39.9765 25.7354 40 25.0655 40 19.7136C40 14.3617 39.9921 13.6918 39.8983 11.5894ZM36.2956 27.6838C36.2095 29.6089 35.8813 30.6485 35.6077 31.3416C34.9355 33.0589 33.5522 34.4218 31.8093 35.0842C31.1059 35.3537 30.0431 35.6771 28.0969 35.7616C25.9867 35.8542 25.3538 35.8771 20.0157 35.8771C14.6776 35.8771 14.0368 35.8542 11.9343 35.7616C9.98038 35.6771 8.92529 35.3537 8.22189 35.0842C7.35455 34.7683 6.56505 34.2678 5.92424 33.6132C5.25992 32.974 4.75191 32.204 4.43135 31.3494C4.15781 30.6563 3.82962 29.6089 3.74383 27.6916C3.6498 25.6124 3.62659 24.9885 3.62659 19.729C3.62659 14.4694 3.6498 13.838 3.74383 11.7666C3.82962 9.84146 4.15781 8.80188 4.43135 8.10882C4.75191 7.25393 5.25992 6.47635 5.93218 5.84466C6.58062 5.1901 7.36218 4.68956 8.22983 4.37402C8.93322 4.1045 9.99626 3.78113 11.9422 3.6963C14.0524 3.60395 14.6856 3.58079 20.0234 3.58079C25.3694 3.58079 26.0022 3.60395 28.1048 3.6963C30.0587 3.78113 31.1138 4.1045 31.8172 4.37402C32.6845 4.68956 33.474 5.1901 34.1148 5.84466C34.7792 6.48387 35.2872 7.25393 35.6077 8.10882C35.8813 8.80188 36.2095 9.84898 36.2956 11.7666C36.3893 13.8458 36.4128 14.4694 36.4128 19.729C36.4128 24.9885 36.3893 25.6046 36.2956 27.6838Z" fill="white"/>
<path d="M20.0078 9.58728C14.3339 9.58728 9.73035 14.1228 9.73035 19.7136C9.73035 25.3044 14.3339 29.8399 20.0078 29.8399C25.682 29.8399 30.2852 25.3044 30.2852 19.7136C30.2852 14.1228 25.682 9.58728 20.0078 9.58728ZM20.0078 26.2823C16.3269 26.2823 13.3411 23.3407 13.3411 19.7136C13.3411 16.0865 16.3269 13.1449 20.0078 13.1449C23.689 13.1449 26.6745 16.0865 26.6745 19.7136C26.6745 23.3407 23.689 26.2823 20.0078 26.2823Z" fill="white"/>
<path d="M33.0912 9.18691C33.0912 10.4924 32.0169 11.5509 30.6916 11.5509C29.3666 11.5509 28.2923 10.4924 28.2923 9.18691C28.2923 7.88111 29.3666 6.82288 30.6916 6.82288C32.0169 6.82288 33.0912 7.88111 33.0912 9.18691Z" fill="white"/>
</svg>
